# Tiled2Unity generated file. Do not modify by hand.
# Wavefront file for 'untitled_mesh_0002.obj'

# Vertices (Count = 436)
v -10.4 -8.8 0
v -10.56 -8.8 0
v -10.56 -8.639999 0
v -10.4 -8.639999 0
v -10.56 -8.8 0
v -10.72 -8.8 0
v -10.72 -8.639999 0
v -10.56 -8.639999 0
v -10.72 -8.8 0
v -10.88 -8.8 0
v -10.88 -8.639999 0
v -10.72 -8.639999 0
v -10.88 -8.8 0
v -11.04 -8.8 0
v -11.04 -8.639999 0
v -10.88 -8.639999 0
v -11.36 -8.8 0
v -11.52 -8.8 0
v -11.52 -8.639999 0
v -11.36 -8.639999 0
v -10.24 -8.96 0
v -10.4 -8.96 0
v -10.4 -8.8 0
v -10.24 -8.8 0
v -10.72 -8.96 0
v -10.88 -8.96 0
v -10.88 -8.8 0
v -10.72 -8.8 0
v -10.88 -8.96 0
v -11.04 -8.96 0
v -11.04 -8.8 0
v -10.88 -8.8 0
v -11.84 -9.12 0
v -12 -9.12 0
v -12 -8.96 0
v -11.84 -8.96 0
v -12 -9.12 0
v -12.16 -9.12 0
v -12.16 -8.96 0
v -12 -8.96 0
v -12.16 -9.12 0
v -12.32 -9.12 0
v -12.32 -8.96 0
v -12.16 -8.96 0
v -10.4 -9.28 0
v -10.56 -9.28 0
v -10.56 -9.12 0
v -10.4 -9.12 0
v -11.84 -9.28 0
v -12 -9.28 0
v -12 -9.12 0
v -11.84 -9.12 0
v -12 -9.28 0
v -12.16 -9.28 0
v -12.16 -9.12 0
v -12 -9.12 0
v -12.96 -9.28 0
v -13.12 -9.28 0
v -13.12 -9.12 0
v -12.96 -9.12 0
v -10.24 -9.44 0
v -10.4 -9.44 0
v -10.4 -9.28 0
v -10.24 -9.28 0
v -10.4 -9.44 0
v -10.56 -9.44 0
v -10.56 -9.28 0
v -10.4 -9.28 0
v -10.72 -9.44 0
v -10.88 -9.44 0
v -10.88 -9.28 0
v -10.72 -9.28 0
v -12.8 -9.44 0
v -12.96 -9.44 0
v -12.96 -9.28 0
v -12.8 -9.28 0
v -12.96 -9.44 0
v -13.12 -9.44 0
v -13.12 -9.28 0
v -12.96 -9.28 0
v -10.24 -9.599999 0
v -10.4 -9.599999 0
v -10.4 -9.44 0
v -10.24 -9.44 0
v -11.36 -9.599999 0
v -11.52 -9.599999 0
v -11.52 -9.44 0
v -11.36 -9.44 0
v -11.84 -9.599999 0
v -12 -9.599999 0
v -12 -9.44 0
v -11.84 -9.44 0
v -12.8 -9.599999 0
v -12.96 -9.599999 0
v -12.96 -9.44 0
v -12.8 -9.44 0
v -13.6 -9.599999 0
v -13.76 -9.599999 0
v -13.76 -9.44 0
v -13.6 -9.44 0
v -11.04 -9.76 0
v -11.2 -9.76 0
v -11.2 -9.599999 0
v -11.04 -9.599999 0
v -11.2 -9.76 0
v -11.36 -9.76 0
v -11.36 -9.599999 0
v -11.2 -9.599999 0
v -11.36 -9.76 0
v -11.52 -9.76 0
v -11.52 -9.599999 0
v -11.36 -9.599999 0
v -13.28 -9.76 0
v -13.44 -9.76 0
v -13.44 -9.599999 0
v -13.28 -9.599999 0
v -12.32 -9.92 0
v -12.48 -9.92 0
v -12.48 -9.76 0
v -12.32 -9.76 0
v -13.28 -9.92 0
v -13.44 -9.92 0
v -13.44 -9.76 0
v -13.28 -9.76 0
v -13.76 -9.92 0
v -13.92 -9.92 0
v -13.92 -9.76 0
v -13.76 -9.76 0
v -13.92 -9.92 0
v -14.08 -9.92 0
v -14.08 -9.76 0
v -13.92 -9.76 0
v -14.08 -9.92 0
v -14.24 -9.92 0
v -14.24 -9.76 0
v -14.08 -9.76 0
v -10.4 -10.08 0
v -10.56 -10.08 0
v -10.56 -9.92 0
v -10.4 -9.92 0
v -10.56 -10.08 0
v -10.72 -10.08 0
v -10.72 -9.92 0
v -10.56 -9.92 0
v -12.32 -10.08 0
v -12.48 -10.08 0
v -12.48 -9.92 0
v -12.32 -9.92 0
v -13.76 -10.08 0
v -13.92 -10.08 0
v -13.92 -9.92 0
v -13.76 -9.92 0
v -13.92 -10.08 0
v -14.08 -10.08 0
v -14.08 -9.92 0
v -13.92 -9.92 0
v -14.08 -10.08 0
v -14.24 -10.08 0
v -14.24 -9.92 0
v -14.08 -9.92 0
v -10.56 -10.24 0
v -10.72 -10.24 0
v -10.72 -10.08 0
v -10.56 -10.08 0
v -12.16 -10.24 0
v -12.32 -10.24 0
v -12.32 -10.08 0
v -12.16 -10.08 0
v -12.32 -10.24 0
v -12.48 -10.24 0
v -12.48 -10.08 0
v -12.32 -10.08 0
v -14.4 -10.24 0
v -14.56 -10.24 0
v -14.56 -10.08 0
v -14.4 -10.08 0
v -12.32 -10.4 0
v -12.48 -10.4 0
v -12.48 -10.24 0
v -12.32 -10.24 0
v -12.48 -10.4 0
v -12.64 -10.4 0
v -12.64 -10.24 0
v -12.48 -10.24 0
v -13.76 -10.4 0
v -13.92 -10.4 0
v -13.92 -10.24 0
v -13.76 -10.24 0
v -13.92 -10.4 0
v -14.08 -10.4 0
v -14.08 -10.24 0
v -13.92 -10.24 0
v -14.08 -10.4 0
v -14.24 -10.4 0
v -14.24 -10.24 0
v -14.08 -10.24 0
v -14.24 -10.4 0
v -14.4 -10.4 0
v -14.4 -10.24 0
v -14.24 -10.24 0
v -14.4 -10.4 0
v -14.56 -10.4 0
v -14.56 -10.24 0
v -14.4 -10.24 0
v -13.76 -10.56 0
v -13.92 -10.56 0
v -13.92 -10.4 0
v -13.76 -10.4 0
v -14.4 -10.56 0
v -14.56 -10.56 0
v -14.56 -10.4 0
v -14.4 -10.4 0
v -10.88 -10.72 0
v -11.04 -10.72 0
v -11.04 -10.56 0
v -10.88 -10.56 0
v -11.04 -10.72 0
v -11.2 -10.72 0
v -11.2 -10.56 0
v -11.04 -10.56 0
v -11.2 -10.72 0
v -11.36 -10.72 0
v -11.36 -10.56 0
v -11.2 -10.56 0
v -12.32 -10.72 0
v -12.48 -10.72 0
v -12.48 -10.56 0
v -12.32 -10.56 0
v -12.48 -10.72 0
v -12.64 -10.72 0
v -12.64 -10.56 0
v -12.48 -10.56 0
v -13.76 -10.72 0
v -13.92 -10.72 0
v -13.92 -10.56 0
v -13.76 -10.56 0
v -14.4 -10.72 0
v -14.56 -10.72 0
v -14.56 -10.56 0
v -14.4 -10.56 0
v -12 -10.88 0
v -12.16 -10.88 0
v -12.16 -10.72 0
v -12 -10.72 0
v -9.76 -11.04 0
v -9.92 -11.04 0
v -9.92 -10.88 0
v -9.76 -10.88 0
v -9.92 -11.04 0
v -10.08 -11.04 0
v -10.08 -10.88 0
v -9.92 -10.88 0
v -11.68 -11.04 0
v -11.84 -11.04 0
v -11.84 -10.88 0
v -11.68 -10.88 0
v -11.84 -11.04 0
v -12 -11.04 0
v -12 -10.88 0
v -11.84 -10.88 0
v -9.76 -11.2 0
v -9.92 -11.2 0
v -9.92 -11.04 0
v -9.76 -11.04 0
v -9.92 -11.2 0
v -10.08 -11.2 0
v -10.08 -11.04 0
v -9.92 -11.04 0
v -12 -11.2 0
v -12.16 -11.2 0
v -12.16 -11.04 0
v -12 -11.04 0
v -12.16 -11.2 0
v -12.32 -11.2 0
v -12.32 -11.04 0
v -12.16 -11.04 0
v -13.92 -11.2 0
v -14.08 -11.2 0
v -14.08 -11.04 0
v -13.92 -11.04 0
v -14.08 -11.2 0
v -14.24 -11.2 0
v -14.24 -11.04 0
v -14.08 -11.04 0
v -14.24 -11.2 0
v -14.4 -11.2 0
v -14.4 -11.04 0
v -14.24 -11.04 0
v -14.4 -11.2 0
v -14.56 -11.2 0
v -14.56 -11.04 0
v -14.4 -11.04 0
v -14.56 -11.2 0
v -14.72 -11.2 0
v -14.72 -11.04 0
v -14.56 -11.04 0
v -12.32 -11.36 0
v -12.48 -11.36 0
v -12.48 -11.2 0
v -12.32 -11.2 0
v -12.48 -11.36 0
v -12.64 -11.36 0
v -12.64 -11.2 0
v -12.48 -11.2 0
v -13.92 -11.52 0
v -14.08 -11.52 0
v -14.08 -11.36 0
v -13.92 -11.36 0
v -14.08 -11.52 0
v -14.24 -11.52 0
v -14.24 -11.36 0
v -14.08 -11.36 0
v -14.24 -11.52 0
v -14.4 -11.52 0
v -14.4 -11.36 0
v -14.24 -11.36 0
v -14.4 -11.52 0
v -14.56 -11.52 0
v -14.56 -11.36 0
v -14.4 -11.36 0
v -14.56 -11.52 0
v -14.72 -11.52 0
v -14.72 -11.36 0
v -14.56 -11.36 0
v -13.92 -11.84 0
v -14.08 -11.84 0
v -14.08 -11.68 0
v -13.92 -11.68 0
v -14.08 -11.84 0
v -14.24 -11.84 0
v -14.24 -11.68 0
v -14.08 -11.68 0
v -14.24 -11.84 0
v -14.4 -11.84 0
v -14.4 -11.68 0
v -14.24 -11.68 0
v -14.4 -11.84 0
v -14.56 -11.84 0
v -14.56 -11.68 0
v -14.4 -11.68 0
v -14.56 -11.84 0
v -14.72 -11.84 0
v -14.72 -11.68 0
v -14.56 -11.68 0
v -13.92 -12 0
v -14.08 -12 0
v -14.08 -11.84 0
v -13.92 -11.84 0
v -14.08 -12 0
v -14.24 -12 0
v -14.24 -11.84 0
v -14.08 -11.84 0
v -11.04 -12.16 0
v -11.2 -12.16 0
v -11.2 -12 0
v -11.04 -12 0
v -10.72 -12.32 0
v -10.88 -12.32 0
v -10.88 -12.16 0
v -10.72 -12.16 0
v -11.04 -12.32 0
v -11.2 -12.32 0
v -11.2 -12.16 0
v -11.04 -12.16 0
v -11.68 -12.32 0
v -11.84 -12.32 0
v -11.84 -12.16 0
v -11.68 -12.16 0
v -11.84 -12.32 0
v -12 -12.32 0
v -12 -12.16 0
v -11.84 -12.16 0
v -12 -12.32 0
v -12.16 -12.32 0
v -12.16 -12.16 0
v -12 -12.16 0
v -12.48 -12.32 0
v -12.64 -12.32 0
v -12.64 -12.16 0
v -12.48 -12.16 0
v -10.08 -12.48 0
v -10.24 -12.48 0
v -10.24 -12.32 0
v -10.08 -12.32 0
v -10.24 -12.48 0
v -10.4 -12.48 0
v -10.4 -12.32 0
v -10.24 -12.32 0
v -10.72 -12.48 0
v -10.88 -12.48 0
v -10.88 -12.32 0
v -10.72 -12.32 0
v -13.44 -12.48 0
v -13.6 -12.48 0
v -13.6 -12.32 0
v -13.44 -12.32 0
v -11.52 -12.64 0
v -11.68 -12.64 0
v -11.68 -12.48 0
v -11.52 -12.48 0
v -11.68 -12.64 0
v -11.84 -12.64 0
v -11.84 -12.48 0
v -11.68 -12.48 0
v -13.44 -12.64 0
v -13.6 -12.64 0
v -13.6 -12.48 0
v -13.44 -12.48 0
v -12.64 -12.96 0
v -12.8 -12.96 0
v -12.8 -12.8 0
v -12.64 -12.8 0
v -12.8 -12.96 0
v -12.96 -12.96 0
v -12.96 -12.8 0
v -12.8 -12.8 0
v -11.04 -13.28 0
v -11.2 -13.28 0
v -11.2 -13.12 0
v -11.04 -13.12 0
v -11.2 -13.28 0
v -11.36 -13.28 0
v -11.36 -13.12 0
v -11.2 -13.12 0
v -13.12 -13.28 0
v -13.28 -13.28 0
v -13.28 -13.12 0
v -13.12 -13.12 0
v -12.32 -13.44 0
v -12.48 -13.44 0
v -12.48 -13.28 0
v -12.32 -13.28 0
v -12.48 -13.44 0
v -12.64 -13.44 0
v -12.64 -13.28 0
v -12.48 -13.28 0

# Texture cooridinates (Count = 44)
vt 0.04 0.9811765
vt 0.05882353 0.9811765
vt 0.05882353 1
vt 0.04 1
vt 0.02 0.9811765
vt 0.03882353 0.9811765
vt 0.03882353 1
vt 0.02 1
vt 0.1 0.9811765
vt 0.1188235 0.9811765
vt 0.1188235 1
vt 0.1 1
vt 0.12 0.9811765
vt 0.1388235 0.9811765
vt 0.1388235 1
vt 0.12 1
vt 0 0.9811765
vt 0.01882353 0.9811765
vt 0.01882353 1
vt 0 1
vt 0.16 0.9811765
vt 0.1788235 0.9811765
vt 0.1788235 1
vt 0.16 1
vt 0.06 0.9411765
vt 0.07882353 0.9411765
vt 0.07882353 0.96
vt 0.06 0.96
vt 0.08 0.9411765
vt 0.09882353 0.9411765
vt 0.09882353 0.96
vt 0.08 0.96
vt 0.14 0.9811765
vt 0.1588235 0.9811765
vt 0.1588235 1
vt 0.14 1
vt 0.08 0.9811765
vt 0.09882353 0.9811765
vt 0.09882353 1
vt 0.08 1
vt 0.06 0.9811765
vt 0.07882353 0.9811765
vt 0.07882353 1
vt 0.06 1

# Normal
vn 0 0 -1

# Mesh description
g untitled_mesh_0002

# Faces
f 1/1/1 2/2/1 3/3/1 4/4/1
f 5/1/1 6/2/1 7/3/1 8/4/1
f 9/5/1 10/6/1 11/7/1 12/8/1
f 13/5/1 14/6/1 15/7/1 16/8/1
f 17/9/1 18/10/1 19/11/1 20/12/1
f 21/9/1 22/10/1 23/11/1 24/12/1
f 25/1/1 26/2/1 27/3/1 28/4/1
f 29/1/1 30/2/1 31/3/1 32/4/1
f 33/1/1 34/2/1 35/3/1 36/4/1
f 37/13/1 38/14/1 39/15/1 40/16/1
f 41/13/1 42/14/1 43/15/1 44/16/1
f 45/1/1 46/2/1 47/3/1 48/4/1
f 49/1/1 50/2/1 51/3/1 52/4/1
f 53/1/1 54/2/1 55/3/1 56/4/1
f 57/5/1 58/6/1 59/7/1 60/8/1
f 61/1/1 62/2/1 63/3/1 64/4/1
f 65/1/1 66/2/1 67/3/1 68/4/1
f 69/13/1 70/14/1 71/15/1 72/16/1
f 73/1/1 74/2/1 75/3/1 76/4/1
f 77/5/1 78/6/1 79/7/1 80/8/1
f 81/1/1 82/2/1 83/3/1 84/4/1
f 85/1/1 86/2/1 87/3/1 88/4/1
f 89/9/1 90/10/1 91/11/1 92/12/1
f 93/1/1 94/2/1 95/3/1 96/4/1
f 97/9/1 98/10/1 99/11/1 100/12/1
f 101/1/1 102/2/1 103/3/1 104/4/1
f 105/1/1 106/2/1 107/3/1 108/4/1
f 109/1/1 110/2/1 111/3/1 112/4/1
f 113/13/1 114/14/1 115/15/1 116/16/1
f 117/1/1 118/2/1 119/3/1 120/4/1
f 121/13/1 122/14/1 123/15/1 124/16/1
f 125/1/1 126/2/1 127/3/1 128/4/1
f 129/17/1 130/18/1 131/19/1 132/20/1
f 133/17/1 134/18/1 135/19/1 136/20/1
f 137/13/1 138/14/1 139/15/1 140/16/1
f 141/13/1 142/14/1 143/15/1 144/16/1
f 145/1/1 146/2/1 147/3/1 148/4/1
f 149/1/1 150/2/1 151/3/1 152/4/1
f 153/1/1 154/2/1 155/3/1 156/4/1
f 157/1/1 158/2/1 159/3/1 160/4/1
f 161/9/1 162/10/1 163/11/1 164/12/1
f 165/1/1 166/2/1 167/3/1 168/4/1
f 169/1/1 170/2/1 171/3/1 172/4/1
f 173/9/1 174/10/1 175/11/1 176/12/1
f 177/13/1 178/14/1 179/15/1 180/16/1
f 181/13/1 182/14/1 183/15/1 184/16/1
f 185/21/1 186/22/1 187/23/1 188/24/1
f 189/13/1 190/14/1 191/15/1 192/16/1
f 193/13/1 194/14/1 195/15/1 196/16/1
f 197/13/1 198/14/1 199/15/1 200/16/1
f 201/1/1 202/2/1 203/3/1 204/4/1
f 205/21/1 206/22/1 207/23/1 208/24/1
f 209/1/1 210/2/1 211/3/1 212/4/1
f 213/13/1 214/14/1 215/15/1 216/16/1
f 217/13/1 218/14/1 219/15/1 220/16/1
f 221/13/1 222/14/1 223/15/1 224/16/1
f 225/1/1 226/2/1 227/3/1 228/4/1
f 229/1/1 230/2/1 231/3/1 232/4/1
f 233/21/1 234/22/1 235/23/1 236/24/1
f 237/1/1 238/2/1 239/3/1 240/4/1
f 241/9/1 242/10/1 243/11/1 244/12/1
f 245/21/1 246/22/1 247/23/1 248/24/1
f 249/21/1 250/22/1 251/23/1 252/24/1
f 253/1/1 254/2/1 255/3/1 256/4/1
f 257/1/1 258/2/1 259/3/1 260/4/1
f 261/21/1 262/22/1 263/23/1 264/24/1
f 265/21/1 266/22/1 267/23/1 268/24/1
f 269/17/1 270/18/1 271/19/1 272/20/1
f 273/17/1 274/18/1 275/19/1 276/20/1
f 277/25/1 278/26/1 279/27/1 280/28/1
f 281/25/1 282/26/1 283/27/1 284/28/1
f 285/25/1 286/26/1 287/27/1 288/28/1
f 289/29/1 290/30/1 291/31/1 292/32/1
f 293/25/1 294/26/1 295/27/1 296/28/1
f 297/33/1 298/34/1 299/35/1 300/36/1
f 301/33/1 302/34/1 303/35/1 304/36/1
f 305/25/1 306/26/1 307/27/1 308/28/1
f 309/29/1 310/30/1 311/31/1 312/32/1
f 313/29/1 314/30/1 315/31/1 316/32/1
f 317/25/1 318/26/1 319/27/1 320/28/1
f 321/25/1 322/26/1 323/27/1 324/28/1
f 325/25/1 326/26/1 327/27/1 328/28/1
f 329/29/1 330/30/1 331/31/1 332/32/1
f 333/25/1 334/26/1 335/27/1 336/28/1
f 337/25/1 338/26/1 339/27/1 340/28/1
f 341/29/1 342/30/1 343/31/1 344/32/1
f 345/33/1 346/34/1 347/35/1 348/36/1
f 349/33/1 350/34/1 351/35/1 352/36/1
f 353/1/1 354/2/1 355/3/1 356/4/1
f 357/5/1 358/6/1 359/7/1 360/8/1
f 361/1/1 362/2/1 363/3/1 364/4/1
f 365/37/1 366/38/1 367/39/1 368/40/1
f 369/37/1 370/38/1 371/39/1 372/40/1
f 373/37/1 374/38/1 375/39/1 376/40/1
f 377/9/1 378/10/1 379/11/1 380/12/1
f 381/41/1 382/42/1 383/43/1 384/44/1
f 385/41/1 386/42/1 387/43/1 388/44/1
f 389/5/1 390/6/1 391/7/1 392/8/1
f 393/13/1 394/14/1 395/15/1 396/16/1
f 397/1/1 398/2/1 399/3/1 400/4/1
f 401/1/1 402/2/1 403/3/1 404/4/1
f 405/13/1 406/14/1 407/15/1 408/16/1
f 409/21/1 410/22/1 411/23/1 412/24/1
f 413/21/1 414/22/1 415/23/1 416/24/1
f 417/21/1 418/22/1 419/23/1 420/24/1
f 421/21/1 422/22/1 423/23/1 424/24/1
f 425/9/1 426/10/1 427/11/1 428/12/1
f 429/13/1 430/14/1 431/15/1 432/16/1
f 433/13/1 434/14/1 435/15/1 436/16/1

