# Tiled2Unity generated file. Do not modify by hand.
# Wavefront file for 'untitled_mesh_0003.obj'

# Vertices (Count = 640)
v -10.08 -10.88 0
v -10.24 -10.88 0
v -10.24 -10.72 0
v -10.08 -10.72 0
v -10.24 -10.88 0
v -10.4 -10.88 0
v -10.4 -10.72 0
v -10.24 -10.72 0
v -10.4 -10.88 0
v -10.56 -10.88 0
v -10.56 -10.72 0
v -10.4 -10.72 0
v -10.56 -10.88 0
v -10.72 -10.88 0
v -10.72 -10.72 0
v -10.56 -10.72 0
v -10.72 -10.88 0
v -10.88 -10.88 0
v -10.88 -10.72 0
v -10.72 -10.72 0
v -10.88 -10.88 0
v -11.04 -10.88 0
v -11.04 -10.72 0
v -10.88 -10.72 0
v -11.04 -10.88 0
v -11.2 -10.88 0
v -11.2 -10.72 0
v -11.04 -10.72 0
v -11.2 -10.88 0
v -11.36 -10.88 0
v -11.36 -10.72 0
v -11.2 -10.72 0
v -10.08 -11.04 0
v -10.24 -11.04 0
v -10.24 -10.88 0
v -10.08 -10.88 0
v -10.24 -11.04 0
v -10.4 -11.04 0
v -10.4 -10.88 0
v -10.24 -10.88 0
v -10.4 -11.04 0
v -10.56 -11.04 0
v -10.56 -10.88 0
v -10.4 -10.88 0
v -10.56 -11.04 0
v -10.72 -11.04 0
v -10.72 -10.88 0
v -10.56 -10.88 0
v -10.72 -11.04 0
v -10.88 -11.04 0
v -10.88 -10.88 0
v -10.72 -10.88 0
v -10.88 -11.04 0
v -11.04 -11.04 0
v -11.04 -10.88 0
v -10.88 -10.88 0
v -11.04 -11.04 0
v -11.2 -11.04 0
v -11.2 -10.88 0
v -11.04 -10.88 0
v -11.2 -11.04 0
v -11.36 -11.04 0
v -11.36 -10.88 0
v -11.2 -10.88 0
v -11.36 -11.04 0
v -11.52 -11.04 0
v -11.52 -10.88 0
v -11.36 -10.88 0
v -11.52 -11.04 0
v -11.68 -11.04 0
v -11.68 -10.88 0
v -11.52 -10.88 0
v -11.68 -11.04 0
v -11.84 -11.04 0
v -11.84 -10.88 0
v -11.68 -10.88 0
v -9.44 -11.2 0
v -9.599999 -11.2 0
v -9.599999 -11.04 0
v -9.44 -11.04 0
v -9.599999 -11.2 0
v -9.76 -11.2 0
v -9.76 -11.04 0
v -9.599999 -11.04 0
v -9.76 -11.2 0
v -9.92 -11.2 0
v -9.92 -11.04 0
v -9.76 -11.04 0
v -9.92 -11.2 0
v -10.08 -11.2 0
v -10.08 -11.04 0
v -9.92 -11.04 0
v -10.08 -11.2 0
v -10.24 -11.2 0
v -10.24 -11.04 0
v -10.08 -11.04 0
v -10.24 -11.2 0
v -10.4 -11.2 0
v -10.4 -11.04 0
v -10.24 -11.04 0
v -10.4 -11.2 0
v -10.56 -11.2 0
v -10.56 -11.04 0
v -10.4 -11.04 0
v -10.56 -11.2 0
v -10.72 -11.2 0
v -10.72 -11.04 0
v -10.56 -11.04 0
v -10.72 -11.2 0
v -10.88 -11.2 0
v -10.88 -11.04 0
v -10.72 -11.04 0
v -10.88 -11.2 0
v -11.04 -11.2 0
v -11.04 -11.04 0
v -10.88 -11.04 0
v -11.04 -11.2 0
v -11.2 -11.2 0
v -11.2 -11.04 0
v -11.04 -11.04 0
v -11.2 -11.2 0
v -11.36 -11.2 0
v -11.36 -11.04 0
v -11.2 -11.04 0
v -11.36 -11.2 0
v -11.52 -11.2 0
v -11.52 -11.04 0
v -11.36 -11.04 0
v -11.52 -11.2 0
v -11.68 -11.2 0
v -11.68 -11.04 0
v -11.52 -11.04 0
v -11.68 -11.2 0
v -11.84 -11.2 0
v -11.84 -11.04 0
v -11.68 -11.04 0
v -11.84 -11.2 0
v -12 -11.2 0
v -12 -11.04 0
v -11.84 -11.04 0
v -12 -11.2 0
v -12.16 -11.2 0
v -12.16 -11.04 0
v -12 -11.04 0
v -9.44 -11.36 0
v -9.599999 -11.36 0
v -9.599999 -11.2 0
v -9.44 -11.2 0
v -9.599999 -11.36 0
v -9.76 -11.36 0
v -9.76 -11.2 0
v -9.599999 -11.2 0
v -9.76 -11.36 0
v -9.92 -11.36 0
v -9.92 -11.2 0
v -9.76 -11.2 0
v -9.92 -11.36 0
v -10.08 -11.36 0
v -10.08 -11.2 0
v -9.92 -11.2 0
v -10.08 -11.36 0
v -10.24 -11.36 0
v -10.24 -11.2 0
v -10.08 -11.2 0
v -10.24 -11.36 0
v -10.4 -11.36 0
v -10.4 -11.2 0
v -10.24 -11.2 0
v -10.4 -11.36 0
v -10.56 -11.36 0
v -10.56 -11.2 0
v -10.4 -11.2 0
v -10.56 -11.36 0
v -10.72 -11.36 0
v -10.72 -11.2 0
v -10.56 -11.2 0
v -10.72 -11.36 0
v -10.88 -11.36 0
v -10.88 -11.2 0
v -10.72 -11.2 0
v -10.88 -11.36 0
v -11.04 -11.36 0
v -11.04 -11.2 0
v -10.88 -11.2 0
v -11.04 -11.36 0
v -11.2 -11.36 0
v -11.2 -11.2 0
v -11.04 -11.2 0
v -11.2 -11.36 0
v -11.36 -11.36 0
v -11.36 -11.2 0
v -11.2 -11.2 0
v -11.36 -11.36 0
v -11.52 -11.36 0
v -11.52 -11.2 0
v -11.36 -11.2 0
v -11.52 -11.36 0
v -11.68 -11.36 0
v -11.68 -11.2 0
v -11.52 -11.2 0
v -11.68 -11.36 0
v -11.84 -11.36 0
v -11.84 -11.2 0
v -11.68 -11.2 0
v -11.84 -11.36 0
v -12 -11.36 0
v -12 -11.2 0
v -11.84 -11.2 0
v -12 -11.36 0
v -12.16 -11.36 0
v -12.16 -11.2 0
v -12 -11.2 0
v -9.44 -11.52 0
v -9.599999 -11.52 0
v -9.599999 -11.36 0
v -9.44 -11.36 0
v -9.599999 -11.52 0
v -9.76 -11.52 0
v -9.76 -11.36 0
v -9.599999 -11.36 0
v -9.76 -11.52 0
v -9.92 -11.52 0
v -9.92 -11.36 0
v -9.76 -11.36 0
v -9.92 -11.52 0
v -10.08 -11.52 0
v -10.08 -11.36 0
v -9.92 -11.36 0
v -10.08 -11.52 0
v -10.24 -11.52 0
v -10.24 -11.36 0
v -10.08 -11.36 0
v -10.24 -11.52 0
v -10.4 -11.52 0
v -10.4 -11.36 0
v -10.24 -11.36 0
v -10.4 -11.52 0
v -10.56 -11.52 0
v -10.56 -11.36 0
v -10.4 -11.36 0
v -10.56 -11.52 0
v -10.72 -11.52 0
v -10.72 -11.36 0
v -10.56 -11.36 0
v -10.72 -11.52 0
v -10.88 -11.52 0
v -10.88 -11.36 0
v -10.72 -11.36 0
v -10.88 -11.52 0
v -11.04 -11.52 0
v -11.04 -11.36 0
v -10.88 -11.36 0
v -11.04 -11.52 0
v -11.2 -11.52 0
v -11.2 -11.36 0
v -11.04 -11.36 0
v -11.2 -11.52 0
v -11.36 -11.52 0
v -11.36 -11.36 0
v -11.2 -11.36 0
v -11.36 -11.52 0
v -11.52 -11.52 0
v -11.52 -11.36 0
v -11.36 -11.36 0
v -11.52 -11.52 0
v -11.68 -11.52 0
v -11.68 -11.36 0
v -11.52 -11.36 0
v -11.68 -11.52 0
v -11.84 -11.52 0
v -11.84 -11.36 0
v -11.68 -11.36 0
v -11.84 -11.52 0
v -12 -11.52 0
v -12 -11.36 0
v -11.84 -11.36 0
v -12 -11.52 0
v -12.16 -11.52 0
v -12.16 -11.36 0
v -12 -11.36 0
v -9.44 -11.68 0
v -9.599999 -11.68 0
v -9.599999 -11.52 0
v -9.44 -11.52 0
v -9.599999 -11.68 0
v -9.76 -11.68 0
v -9.76 -11.52 0
v -9.599999 -11.52 0
v -9.76 -11.68 0
v -9.92 -11.68 0
v -9.92 -11.52 0
v -9.76 -11.52 0
v -9.92 -11.68 0
v -10.08 -11.68 0
v -10.08 -11.52 0
v -9.92 -11.52 0
v -10.08 -11.68 0
v -10.24 -11.68 0
v -10.24 -11.52 0
v -10.08 -11.52 0
v -10.24 -11.68 0
v -10.4 -11.68 0
v -10.4 -11.52 0
v -10.24 -11.52 0
v -10.4 -11.68 0
v -10.56 -11.68 0
v -10.56 -11.52 0
v -10.4 -11.52 0
v -10.56 -11.68 0
v -10.72 -11.68 0
v -10.72 -11.52 0
v -10.56 -11.52 0
v -10.72 -11.68 0
v -10.88 -11.68 0
v -10.88 -11.52 0
v -10.72 -11.52 0
v -10.88 -11.68 0
v -11.04 -11.68 0
v -11.04 -11.52 0
v -10.88 -11.52 0
v -11.04 -11.68 0
v -11.2 -11.68 0
v -11.2 -11.52 0
v -11.04 -11.52 0
v -11.2 -11.68 0
v -11.36 -11.68 0
v -11.36 -11.52 0
v -11.2 -11.52 0
v -11.36 -11.68 0
v -11.52 -11.68 0
v -11.52 -11.52 0
v -11.36 -11.52 0
v -11.52 -11.68 0
v -11.68 -11.68 0
v -11.68 -11.52 0
v -11.52 -11.52 0
v -11.68 -11.68 0
v -11.84 -11.68 0
v -11.84 -11.52 0
v -11.68 -11.52 0
v -11.84 -11.68 0
v -12 -11.68 0
v -12 -11.52 0
v -11.84 -11.52 0
v -12 -11.68 0
v -12.16 -11.68 0
v -12.16 -11.52 0
v -12 -11.52 0
v -9.44 -11.84 0
v -9.599999 -11.84 0
v -9.599999 -11.68 0
v -9.44 -11.68 0
v -9.599999 -11.84 0
v -9.76 -11.84 0
v -9.76 -11.68 0
v -9.599999 -11.68 0
v -9.76 -11.84 0
v -9.92 -11.84 0
v -9.92 -11.68 0
v -9.76 -11.68 0
v -9.92 -11.84 0
v -10.08 -11.84 0
v -10.08 -11.68 0
v -9.92 -11.68 0
v -10.08 -11.84 0
v -10.24 -11.84 0
v -10.24 -11.68 0
v -10.08 -11.68 0
v -10.24 -11.84 0
v -10.4 -11.84 0
v -10.4 -11.68 0
v -10.24 -11.68 0
v -10.4 -11.84 0
v -10.56 -11.84 0
v -10.56 -11.68 0
v -10.4 -11.68 0
v -10.56 -11.84 0
v -10.72 -11.84 0
v -10.72 -11.68 0
v -10.56 -11.68 0
v -10.72 -11.84 0
v -10.88 -11.84 0
v -10.88 -11.68 0
v -10.72 -11.68 0
v -10.88 -11.84 0
v -11.04 -11.84 0
v -11.04 -11.68 0
v -10.88 -11.68 0
v -11.04 -11.84 0
v -11.2 -11.84 0
v -11.2 -11.68 0
v -11.04 -11.68 0
v -11.2 -11.84 0
v -11.36 -11.84 0
v -11.36 -11.68 0
v -11.2 -11.68 0
v -11.36 -11.84 0
v -11.52 -11.84 0
v -11.52 -11.68 0
v -11.36 -11.68 0
v -11.52 -11.84 0
v -11.68 -11.84 0
v -11.68 -11.68 0
v -11.52 -11.68 0
v -11.68 -11.84 0
v -11.84 -11.84 0
v -11.84 -11.68 0
v -11.68 -11.68 0
v -11.84 -11.84 0
v -12 -11.84 0
v -12 -11.68 0
v -11.84 -11.68 0
v -12 -11.84 0
v -12.16 -11.84 0
v -12.16 -11.68 0
v -12 -11.68 0
v -9.44 -12 0
v -9.599999 -12 0
v -9.599999 -11.84 0
v -9.44 -11.84 0
v -9.599999 -12 0
v -9.76 -12 0
v -9.76 -11.84 0
v -9.599999 -11.84 0
v -9.76 -12 0
v -9.92 -12 0
v -9.92 -11.84 0
v -9.76 -11.84 0
v -9.92 -12 0
v -10.08 -12 0
v -10.08 -11.84 0
v -9.92 -11.84 0
v -10.08 -12 0
v -10.24 -12 0
v -10.24 -11.84 0
v -10.08 -11.84 0
v -10.24 -12 0
v -10.4 -12 0
v -10.4 -11.84 0
v -10.24 -11.84 0
v -10.4 -12 0
v -10.56 -12 0
v -10.56 -11.84 0
v -10.4 -11.84 0
v -10.56 -12 0
v -10.72 -12 0
v -10.72 -11.84 0
v -10.56 -11.84 0
v -10.72 -12 0
v -10.88 -12 0
v -10.88 -11.84 0
v -10.72 -11.84 0
v -10.88 -12 0
v -11.04 -12 0
v -11.04 -11.84 0
v -10.88 -11.84 0
v -11.04 -12 0
v -11.2 -12 0
v -11.2 -11.84 0
v -11.04 -11.84 0
v -11.2 -12 0
v -11.36 -12 0
v -11.36 -11.84 0
v -11.2 -11.84 0
v -11.36 -12 0
v -11.52 -12 0
v -11.52 -11.84 0
v -11.36 -11.84 0
v -11.52 -12 0
v -11.68 -12 0
v -11.68 -11.84 0
v -11.52 -11.84 0
v -11.68 -12 0
v -11.84 -12 0
v -11.84 -11.84 0
v -11.68 -11.84 0
v -11.84 -12 0
v -12 -12 0
v -12 -11.84 0
v -11.84 -11.84 0
v -12 -12 0
v -12.16 -12 0
v -12.16 -11.84 0
v -12 -11.84 0
v -9.76 -12.16 0
v -9.92 -12.16 0
v -9.92 -12 0
v -9.76 -12 0
v -9.92 -12.16 0
v -10.08 -12.16 0
v -10.08 -12 0
v -9.92 -12 0
v -10.08 -12.16 0
v -10.24 -12.16 0
v -10.24 -12 0
v -10.08 -12 0
v -10.24 -12.16 0
v -10.4 -12.16 0
v -10.4 -12 0
v -10.24 -12 0
v -10.4 -12.16 0
v -10.56 -12.16 0
v -10.56 -12 0
v -10.4 -12 0
v -10.56 -12.16 0
v -10.72 -12.16 0
v -10.72 -12 0
v -10.56 -12 0
v -10.72 -12.16 0
v -10.88 -12.16 0
v -10.88 -12 0
v -10.72 -12 0
v -10.88 -12.16 0
v -11.04 -12.16 0
v -11.04 -12 0
v -10.88 -12 0
v -11.04 -12.16 0
v -11.2 -12.16 0
v -11.2 -12 0
v -11.04 -12 0
v -11.2 -12.16 0
v -11.36 -12.16 0
v -11.36 -12 0
v -11.2 -12 0
v -11.36 -12.16 0
v -11.52 -12.16 0
v -11.52 -12 0
v -11.36 -12 0
v -11.52 -12.16 0
v -11.68 -12.16 0
v -11.68 -12 0
v -11.52 -12 0
v -9.76 -12.32 0
v -9.92 -12.32 0
v -9.92 -12.16 0
v -9.76 -12.16 0
v -9.92 -12.32 0
v -10.08 -12.32 0
v -10.08 -12.16 0
v -9.92 -12.16 0
v -10.08 -12.32 0
v -10.24 -12.32 0
v -10.24 -12.16 0
v -10.08 -12.16 0
v -10.24 -12.32 0
v -10.4 -12.32 0
v -10.4 -12.16 0
v -10.24 -12.16 0
v -10.4 -12.32 0
v -10.56 -12.32 0
v -10.56 -12.16 0
v -10.4 -12.16 0
v -10.56 -12.32 0
v -10.72 -12.32 0
v -10.72 -12.16 0
v -10.56 -12.16 0
v -10.88 -12.32 0
v -11.04 -12.32 0
v -11.04 -12.16 0
v -10.88 -12.16 0
v -9.76 -12.48 0
v -9.92 -12.48 0
v -9.92 -12.32 0
v -9.76 -12.32 0
v -9.92 -12.48 0
v -10.08 -12.48 0
v -10.08 -12.32 0
v -9.92 -12.32 0
v -10.08 -12.48 0
v -10.24 -12.48 0
v -10.24 -12.32 0
v -10.08 -12.32 0
v -10.24 -12.48 0
v -10.4 -12.48 0
v -10.4 -12.32 0
v -10.24 -12.32 0
v -10.4 -12.48 0
v -10.56 -12.48 0
v -10.56 -12.32 0
v -10.4 -12.32 0
v -10.56 -12.48 0
v -10.72 -12.48 0
v -10.72 -12.32 0
v -10.56 -12.32 0
v -10.88 -12.48 0
v -11.04 -12.48 0
v -11.04 -12.32 0
v -10.88 -12.32 0
v -10.72 -12.64 0
v -10.88 -12.64 0
v -10.88 -12.48 0
v -10.72 -12.48 0
v -10.88 -12.64 0
v -11.04 -12.64 0
v -11.04 -12.48 0
v -10.88 -12.48 0
v -10.72 -12.8 0
v -10.88 -12.8 0
v -10.88 -12.64 0
v -10.72 -12.64 0
v -10.72 -12.96 0
v -10.88 -12.96 0
v -10.88 -12.8 0
v -10.72 -12.8 0
v -10.72 -13.12 0
v -10.88 -13.12 0
v -10.88 -12.96 0
v -10.72 -12.96 0
v -10.88 -13.12 0
v -11.04 -13.12 0
v -11.04 -12.96 0
v -10.88 -12.96 0
v -10.88 -13.28 0
v -11.04 -13.28 0
v -11.04 -13.12 0
v -10.88 -13.12 0
v -10.4 -13.44 0
v -10.56 -13.44 0
v -10.56 -13.28 0
v -10.4 -13.28 0
v -10.56 -13.44 0
v -10.72 -13.44 0
v -10.72 -13.28 0
v -10.56 -13.28 0
v -10.72 -13.44 0
v -10.88 -13.44 0
v -10.88 -13.28 0
v -10.72 -13.28 0
v -10.88 -13.44 0
v -11.04 -13.44 0
v -11.04 -13.28 0
v -10.88 -13.28 0
v -10.4 -13.6 0
v -10.56 -13.6 0
v -10.56 -13.44 0
v -10.4 -13.44 0
v -10.4 -13.76 0
v -10.56 -13.76 0
v -10.56 -13.6 0
v -10.4 -13.6 0

# Texture cooridinates (Count = 132)
vt 0.64 0.9211765
vt 0.6588235 0.9211765
vt 0.6588235 0.94
vt 0.64 0.94
vt 0.6 0.9211765
vt 0.6188235 0.9211765
vt 0.6188235 0.94
vt 0.6 0.94
vt 0.66 0.9211765
vt 0.6788235 0.9211765
vt 0.6788235 0.94
vt 0.66 0.94
vt 0.56 0.9211765
vt 0.5788235 0.9211765
vt 0.5788235 0.94
vt 0.56 0.94
vt 0.36 0.9211765
vt 0.3788235 0.9211765
vt 0.3788235 0.94
vt 0.36 0.94
vt 0.38 0.9211765
vt 0.3988235 0.9211765
vt 0.3988235 0.94
vt 0.38 0.94
vt 0.4 0.9211765
vt 0.4188235 0.9211765
vt 0.4188235 0.94
vt 0.4 0.94
vt 0.7 0.9011765
vt 0.7188236 0.9011765
vt 0.7188236 0.92
vt 0.7 0.92
vt 0.68 0.9011765
vt 0.6988235 0.9011765
vt 0.6988235 0.92
vt 0.68 0.92
vt 0.36 0.9011765
vt 0.3788235 0.9011765
vt 0.3788235 0.92
vt 0.36 0.92
vt 0.38 0.9011765
vt 0.3988235 0.9011765
vt 0.3988235 0.92
vt 0.38 0.92
vt 0.42 0.8811765
vt 0.4388235 0.8811765
vt 0.4388235 0.9
vt 0.42 0.9
vt 0.44 0.8811765
vt 0.4588235 0.8811765
vt 0.4588235 0.9
vt 0.44 0.9
vt 0.58 0.9211765
vt 0.5988235 0.9211765
vt 0.5988235 0.94
vt 0.58 0.94
vt 0.4 0.9011765
vt 0.4188235 0.9011765
vt 0.4188235 0.92
vt 0.4 0.92
vt 0.36 0.8811765
vt 0.3788235 0.8811765
vt 0.3788235 0.9
vt 0.36 0.9
vt 0.38 0.8811765
vt 0.3988235 0.8811765
vt 0.3988235 0.9
vt 0.38 0.9
vt 0.44 0.9011765
vt 0.4588235 0.9011765
vt 0.4588235 0.92
vt 0.44 0.92
vt 0.42 0.9011765
vt 0.4388235 0.9011765
vt 0.4388235 0.92
vt 0.42 0.92
vt 0.4 0.8811765
vt 0.4188235 0.8811765
vt 0.4188235 0.9
vt 0.4 0.9
vt 0.68 0.9211765
vt 0.6988235 0.9211765
vt 0.6988235 0.94
vt 0.68 0.94
vt 0.62 0.9211765
vt 0.6388235 0.9211765
vt 0.6388235 0.94
vt 0.62 0.94
vt 0.68 0.8811765
vt 0.6988235 0.8811765
vt 0.6988235 0.9
vt 0.68 0.9
vt 0.72 0.9011765
vt 0.7388235 0.9011765
vt 0.7388235 0.92
vt 0.72 0.92
vt 0.7 0.8811765
vt 0.7188236 0.8811765
vt 0.7188236 0.9
vt 0.7 0.9
vt 0.7 0.9211765
vt 0.7188236 0.9211765
vt 0.7188236 0.94
vt 0.7 0.94
vt 0.52 0.9011765
vt 0.5388235 0.9011765
vt 0.5388235 0.92
vt 0.52 0.92
vt 0.54 0.8811765
vt 0.5588235 0.8811765
vt 0.5588235 0.9
vt 0.54 0.9
vt 0.46 0.9211765
vt 0.4788235 0.9211765
vt 0.4788235 0.94
vt 0.46 0.94
vt 0.5 0.8811765
vt 0.5188235 0.8811765
vt 0.5188235 0.9
vt 0.5 0.9
vt 0.46 0.8811765
vt 0.4788235 0.8811765
vt 0.4788235 0.9
vt 0.46 0.9
vt 0.5 0.9211765
vt 0.5188235 0.9211765
vt 0.5188235 0.94
vt 0.5 0.94
vt 0.52 0.8811765
vt 0.5388235 0.8811765
vt 0.5388235 0.9
vt 0.52 0.9

# Normal
vn 0 0 -1

# Mesh description
g untitled_mesh_0003

# Faces
f 1/1/1 2/2/1 3/3/1 4/4/1
f 5/5/1 6/6/1 7/7/1 8/8/1
f 9/5/1 10/6/1 11/7/1 12/8/1
f 13/5/1 14/6/1 15/7/1 16/8/1
f 17/5/1 18/6/1 19/7/1 20/8/1
f 21/5/1 22/6/1 23/7/1 24/8/1
f 25/5/1 26/6/1 27/7/1 28/8/1
f 29/9/1 30/10/1 31/11/1 32/12/1
f 33/13/1 34/14/1 35/15/1 36/16/1
f 37/17/1 38/18/1 39/19/1 40/20/1
f 41/21/1 42/22/1 43/23/1 44/24/1
f 45/21/1 46/22/1 47/23/1 48/24/1
f 49/21/1 50/22/1 51/23/1 52/24/1
f 53/21/1 54/22/1 55/23/1 56/24/1
f 57/25/1 58/26/1 59/27/1 60/28/1
f 61/29/1 62/30/1 63/31/1 64/32/1
f 65/5/1 66/6/1 67/7/1 68/8/1
f 69/5/1 70/6/1 71/7/1 72/8/1
f 73/9/1 74/10/1 75/11/1 76/12/1
f 77/1/1 78/2/1 79/3/1 80/4/1
f 81/5/1 82/6/1 83/7/1 84/8/1
f 85/5/1 86/6/1 87/7/1 88/8/1
f 89/5/1 90/6/1 91/7/1 92/8/1
f 93/33/1 94/34/1 95/35/1 96/36/1
f 97/37/1 98/38/1 99/39/1 100/40/1
f 101/41/1 102/42/1 103/43/1 104/44/1
f 105/41/1 106/42/1 107/43/1 108/44/1
f 109/41/1 110/42/1 111/43/1 112/44/1
f 113/41/1 114/42/1 115/43/1 116/44/1
f 117/45/1 118/46/1 119/47/1 120/48/1
f 121/21/1 122/22/1 123/23/1 124/24/1
f 125/21/1 126/22/1 127/23/1 128/24/1
f 129/25/1 130/26/1 131/27/1 132/28/1
f 133/29/1 134/30/1 135/31/1 136/32/1
f 137/5/1 138/6/1 139/7/1 140/8/1
f 141/9/1 142/10/1 143/11/1 144/12/1
f 145/13/1 146/14/1 147/15/1 148/16/1
f 149/17/1 150/18/1 151/19/1 152/20/1
f 153/21/1 154/22/1 155/23/1 156/24/1
f 157/21/1 158/22/1 159/23/1 160/24/1
f 161/21/1 162/22/1 163/23/1 164/24/1
f 165/49/1 166/50/1 167/51/1 168/52/1
f 169/41/1 170/42/1 171/43/1 172/44/1
f 173/41/1 174/42/1 175/43/1 176/44/1
f 177/41/1 178/42/1 179/43/1 180/44/1
f 181/41/1 182/42/1 183/43/1 184/44/1
f 185/41/1 186/42/1 187/43/1 188/44/1
f 189/41/1 190/42/1 191/43/1 192/44/1
f 193/41/1 194/42/1 195/43/1 196/44/1
f 197/45/1 198/46/1 199/47/1 200/48/1
f 201/21/1 202/22/1 203/23/1 204/24/1
f 205/25/1 206/26/1 207/27/1 208/28/1
f 209/53/1 210/54/1 211/55/1 212/56/1
f 213/13/1 214/14/1 215/15/1 216/16/1
f 217/37/1 218/38/1 219/39/1 220/40/1
f 221/41/1 222/42/1 223/43/1 224/44/1
f 225/41/1 226/42/1 227/43/1 228/44/1
f 229/41/1 230/42/1 231/43/1 232/44/1
f 233/41/1 234/42/1 235/43/1 236/44/1
f 237/41/1 238/42/1 239/43/1 240/44/1
f 241/41/1 242/42/1 243/43/1 244/44/1
f 245/41/1 246/42/1 247/43/1 248/44/1
f 249/41/1 250/42/1 251/43/1 252/44/1
f 253/41/1 254/42/1 255/43/1 256/44/1
f 257/41/1 258/42/1 259/43/1 260/44/1
f 261/41/1 262/42/1 263/43/1 264/44/1
f 265/41/1 266/42/1 267/43/1 268/44/1
f 269/41/1 270/42/1 271/43/1 272/44/1
f 273/57/1 274/58/1 275/59/1 276/60/1
f 277/53/1 278/54/1 279/55/1 280/56/1
f 281/13/1 282/14/1 283/15/1 284/16/1
f 285/37/1 286/38/1 287/39/1 288/40/1
f 289/41/1 290/42/1 291/43/1 292/44/1
f 293/41/1 294/42/1 295/43/1 296/44/1
f 297/41/1 298/42/1 299/43/1 300/44/1
f 301/41/1 302/42/1 303/43/1 304/44/1
f 305/41/1 306/42/1 307/43/1 308/44/1
f 309/41/1 310/42/1 311/43/1 312/44/1
f 313/41/1 314/42/1 315/43/1 316/44/1
f 317/41/1 318/42/1 319/43/1 320/44/1
f 321/41/1 322/42/1 323/43/1 324/44/1
f 325/41/1 326/42/1 327/43/1 328/44/1
f 329/41/1 330/42/1 331/43/1 332/44/1
f 333/41/1 334/42/1 335/43/1 336/44/1
f 337/41/1 338/42/1 339/43/1 340/44/1
f 341/57/1 342/58/1 343/59/1 344/60/1
f 345/53/1 346/54/1 347/55/1 348/56/1
f 349/13/1 350/14/1 351/15/1 352/16/1
f 353/61/1 354/62/1 355/63/1 356/64/1
f 357/65/1 358/66/1 359/67/1 360/68/1
f 361/69/1 362/70/1 363/71/1 364/72/1
f 365/41/1 366/42/1 367/43/1 368/44/1
f 369/41/1 370/42/1 371/43/1 372/44/1
f 373/41/1 374/42/1 375/43/1 376/44/1
f 377/41/1 378/42/1 379/43/1 380/44/1
f 381/41/1 382/42/1 383/43/1 384/44/1
f 385/41/1 386/42/1 387/43/1 388/44/1
f 389/41/1 390/42/1 391/43/1 392/44/1
f 393/41/1 394/42/1 395/43/1 396/44/1
f 397/73/1 398/74/1 399/75/1 400/76/1
f 401/65/1 402/66/1 403/67/1 404/68/1
f 405/65/1 406/66/1 407/67/1 408/68/1
f 409/77/1 410/78/1 411/79/1 412/80/1
f 413/53/1 414/54/1 415/55/1 416/56/1
f 417/81/1 418/82/1 419/83/1 420/84/1
f 421/85/1 422/86/1 423/87/1 424/88/1
f 425/89/1 426/90/1 427/91/1 428/92/1
f 429/37/1 430/38/1 431/39/1 432/40/1
f 433/41/1 434/42/1 435/43/1 436/44/1
f 437/41/1 438/42/1 439/43/1 440/44/1
f 441/73/1 442/74/1 443/75/1 444/76/1
f 445/65/1 446/66/1 447/67/1 448/68/1
f 449/65/1 450/66/1 451/67/1 452/68/1
f 453/93/1 454/94/1 455/95/1 456/96/1
f 457/65/1 458/66/1 459/67/1 460/68/1
f 461/65/1 462/66/1 463/67/1 464/68/1
f 465/77/1 466/78/1 467/79/1 468/80/1
f 469/97/1 470/98/1 471/99/1 472/100/1
f 473/85/1 474/86/1 475/87/1 476/88/1
f 477/85/1 478/86/1 479/87/1 480/88/1
f 481/101/1 482/102/1 483/103/1 484/104/1
f 485/13/1 486/14/1 487/15/1 488/16/1
f 489/37/1 490/38/1 491/39/1 492/40/1
f 493/41/1 494/42/1 495/43/1 496/44/1
f 497/41/1 498/42/1 499/43/1 500/44/1
f 501/57/1 502/58/1 503/59/1 504/60/1
f 505/97/1 506/98/1 507/99/1 508/100/1
f 509/85/1 510/86/1 511/87/1 512/88/1
f 513/105/1 514/106/1 515/107/1 516/108/1
f 517/85/1 518/86/1 519/87/1 520/88/1
f 521/85/1 522/86/1 523/87/1 524/88/1
f 525/85/1 526/86/1 527/87/1 528/88/1
f 529/101/1 530/102/1 531/103/1 532/104/1
f 533/13/1 534/14/1 535/15/1 536/16/1
f 537/61/1 538/62/1 539/63/1 540/64/1
f 541/65/1 542/66/1 543/67/1 544/68/1
f 545/65/1 546/66/1 547/67/1 548/68/1
f 549/77/1 550/78/1 551/79/1 552/80/1
f 553/53/1 554/54/1 555/55/1 556/56/1
f 557/109/1 558/110/1 559/111/1 560/112/1
f 561/81/1 562/82/1 563/83/1 564/84/1
f 565/85/1 566/86/1 567/87/1 568/88/1
f 569/85/1 570/86/1 571/87/1 572/88/1
f 573/85/1 574/86/1 575/87/1 576/88/1
f 577/85/1 578/86/1 579/87/1 580/88/1
f 581/101/1 582/102/1 583/103/1 584/104/1
f 585/109/1 586/110/1 587/111/1 588/112/1
f 589/113/1 590/114/1 591/115/1 592/116/1
f 593/117/1 594/118/1 595/119/1 596/120/1
f 597/109/1 598/110/1 599/111/1 600/112/1
f 601/109/1 602/110/1 603/111/1 604/112/1
f 605/121/1 606/122/1 607/123/1 608/124/1
f 609/125/1 610/126/1 611/127/1 612/128/1
f 613/109/1 614/110/1 615/111/1 616/112/1
f 617/113/1 618/114/1 619/115/1 620/116/1
f 621/129/1 622/130/1 623/131/1 624/132/1
f 625/129/1 626/130/1 627/131/1 628/132/1
f 629/117/1 630/118/1 631/119/1 632/120/1
f 633/109/1 634/110/1 635/111/1 636/112/1
f 637/109/1 638/110/1 639/111/1 640/112/1

